<?xml version="1.0" standalone="no"?>
<!DOCTYPE svg PUBLIC "-//W3C//DTD SVG 20010904//EN"
 "http://www.w3.org/TR/2001/REC-SVG-20010904/DTD/svg10.dtd">
<svg version="1.0" xmlns="http://www.w3.org/2000/svg"
 width="1200.000000pt" height="1200.000000pt" viewBox="0 0 1200.000000 1200.000000"
 preserveAspectRatio="xMidYMid meet">

<g transform="translate(0.000000,1200.000000) scale(0.100000,-0.100000)"
fill="#000000" stroke="none">
<path d="M0 6000 l0 -6000 6000 0 6000 0 0 6000 0 6000 -6000 0 -6000 0 0
-6000z m3176 1463 c4 -13 5 -77 2 -141 -3 -99 -8 -126 -29 -172 -47 -101 -132
-166 -271 -208 -36 -11 -99 -41 -140 -68 -90 -59 -260 -227 -318 -313 -283
-421 -275 -949 21 -1364 162 -228 427 -400 703 -458 48 -10 90 -20 92 -22 2
-2 1 -25 -2 -51 l-7 -48 -59 6 c-32 4 -85 15 -116 24 l-57 18 -80 -58 c-197
-142 -391 -151 -581 -27 -100 65 -95 90 38 184 72 52 123 76 218 102 9 3 -6
22 -45 56 l-58 53 -81 -24 c-160 -47 -306 -26 -442 64 -79 53 -184 188 -184
238 0 26 29 45 113 72 93 29 225 36 290 15 35 -12 59 -9 44 5 -3 3 -47 15 -99
26 -267 57 -424 222 -453 479 -9 78 11 99 93 99 113 0 219 -41 305 -119 38
-34 40 -35 34 -11 -4 14 -7 53 -7 87 l0 63 -77 39 c-121 61 -194 144 -227 262
-13 44 -16 94 -14 230 l3 173 27 15 c25 15 31 13 113 -28 108 -55 183 -127
227 -221 18 -38 35 -69 38 -69 3 -1 20 31 37 70 l32 71 -43 50 c-118 134 -145
313 -71 464 31 64 117 179 150 200 22 15 27 15 48 1 36 -23 150 -186 169 -242
10 -27 17 -67 18 -87 0 -21 2 -38 5 -38 3 0 33 22 68 49 34 26 81 60 104 74
l41 26 4 133 c3 125 5 136 33 187 51 92 128 141 262 164 88 15 120 7 129 -30z
m468 27 c90 -14 153 -47 209 -110 61 -68 77 -122 77 -261 l0 -108 63 -42 c34
-23 81 -57 104 -75 l41 -34 7 43 c13 76 45 145 106 227 71 95 98 116 129 100
30 -16 132 -157 159 -220 65 -151 32 -333 -80 -448 l-41 -42 33 -75 c18 -41
33 -75 34 -75 1 0 17 30 35 66 44 90 125 169 227 222 92 48 105 50 133 22 18
-18 20 -33 20 -175 0 -176 -10 -237 -52 -316 -39 -75 -97 -130 -192 -181 l-79
-43 -3 -83 -2 -82 46 41 c81 71 183 109 292 109 80 0 95 -14 92 -86 -5 -132
-62 -253 -162 -348 -94 -88 -153 -115 -362 -160 -16 -4 -28 -11 -28 -17 0 -7
9 -9 23 -5 101 30 219 25 331 -14 66 -22 96 -44 96 -70 0 -26 -74 -135 -127
-186 -100 -96 -274 -154 -400 -134 -32 6 -85 19 -118 29 l-60 19 -57 -50 c-32
-28 -56 -54 -53 -58 3 -4 21 -11 42 -15 51 -9 115 -43 206 -110 65 -48 77 -61
77 -85 0 -24 -10 -37 -55 -71 -118 -89 -306 -118 -440 -68 -69 25 -88 36 -170
100 l-60 46 -60 -18 c-33 -10 -85 -21 -116 -25 l-56 -6 -7 47 c-4 26 -5 49 -3
52 3 2 44 13 90 23 263 58 510 210 669 412 183 231 260 456 259 748 -1 241
-64 447 -199 655 -100 153 -339 354 -457 385 -132 35 -212 92 -265 192 -33 61
-34 67 -38 199 -4 130 -3 138 17 158 13 13 29 20 39 17 9 -3 48 -10 86 -16z
m-208 -925 l49 -25 364 0 c325 0 366 -2 383 -17 15 -14 18 -32 18 -124 0 -131
0 -131 -138 -137 -80 -4 -92 -7 -88 -21 13 -43 106 -392 106 -396 0 -3 8 -5
17 -5 35 0 53 -30 53 -91 0 -190 -169 -326 -342 -275 -65 19 -139 80 -170 140
-30 58 -37 179 -13 206 10 11 26 20 35 20 13 0 27 41 68 189 29 104 52 194 52
201 0 10 -29 11 -132 6 -73 -4 -148 -10 -165 -13 l-33 -5 0 -459 0 -459 54 0
c62 0 109 -26 139 -78 27 -47 36 -182 13 -217 l-16 -25 -350 0 -350 0 -16 25
c-13 20 -16 43 -12 109 4 73 8 89 32 120 35 47 59 59 126 66 l55 5 3 456 2
456 -37 6 c-21 3 -98 9 -171 13 -111 6 -132 5 -127 -7 2 -8 25 -90 50 -184 25
-93 48 -178 51 -187 3 -10 14 -18 24 -18 74 0 63 -186 -16 -278 -55 -65 -123
-96 -209 -96 -110 0 -193 54 -241 159 -44 92 -29 215 24 215 14 0 28 41 71
198 29 108 55 202 58 208 2 7 -31 13 -99 18 -64 4 -108 11 -116 20 -9 9 -14
46 -15 120 -2 96 0 109 17 122 16 11 85 14 385 14 l366 0 49 25 c32 16 66 25
96 25 30 0 64 -9 96 -25z m5379 -270 l0 -50 -47 -3 -48 -3 0 56 0 56 48 -3 47
-3 0 -50z m755 -315 l0 -370 -40 0 c-38 0 -40 1 -40 32 l0 32 -35 -34 c-32
-31 -42 -35 -103 -38 -87 -4 -133 21 -174 94 -51 92 -54 270 -6 356 60 108
194 142 278 72 l30 -26 0 126 0 126 45 0 45 0 0 -370z m-3840 25 l0 -315 170
0 170 0 0 -40 0 -40 -220 0 -220 0 0 355 0 355 50 0 50 0 0 -315z m849 -27
c58 -189 106 -349 109 -355 3 -9 -10 -13 -47 -13 l-50 0 -21 73 c-12 39 -24
80 -26 90 -5 15 -20 17 -129 17 -109 0 -124 -2 -129 -17 -2 -10 -14 -51 -26
-90 l-21 -73 -50 0 c-37 0 -50 4 -47 13 3 6 52 166 109 354 l104 343 60 0 60
0 104 -342z m231 331 c0 -12 59 -516 63 -539 1 -8 18 59 36 150 46 221 41 210
95 210 25 0 47 -3 50 -8 2 -4 21 -88 42 -186 21 -98 39 -174 41 -170 4 12 63
519 63 538 0 13 11 16 50 16 l50 0 -6 -37 c-3 -21 -27 -180 -53 -353 l-46
-315 -47 -3 c-38 -2 -47 0 -51 15 -3 10 -24 101 -47 203 -23 102 -43 186 -44
187 -1 2 -19 -73 -40 -165 -61 -270 -49 -244 -104 -240 l-46 3 -48 320 c-26
176 -50 335 -53 353 l-6 32 51 0 c29 0 50 -4 50 -11z m875 0 c54 -15 104 -54
121 -95 32 -77 7 -173 -53 -204 l-32 -17 36 -24 c69 -45 98 -112 86 -197 -8
-61 -40 -103 -98 -132 -46 -23 -63 -25 -207 -28 l-158 -4 0 356 0 356 133 0
c72 0 150 -5 172 -11z m2328 -163 c18 -7 41 -23 52 -36 l20 -22 5 28 c5 26 9
29 45 29 l40 0 0 -285 c0 -251 -2 -291 -18 -332 -42 -108 -153 -150 -307 -117
l-50 11 0 44 c0 24 1 44 3 44 1 0 28 -9 60 -20 67 -24 105 -25 152 -6 44 19
64 60 72 144 l6 67 -23 -29 c-45 -56 -138 -73 -208 -37 -45 23 -62 42 -93 101
-21 39 -24 59 -24 155 0 99 3 115 27 160 14 28 34 57 44 66 55 48 134 62 197
35z m642 -5 c81 -38 119 -99 131 -214 l7 -67 -192 0 -191 0 0 -28 c0 -46 41
-115 80 -135 47 -24 165 -18 233 11 l47 21 0 -43 c0 -38 -3 -45 -27 -54 -189
-74 -360 -17 -408 134 -26 84 -18 203 19 269 46 84 115 124 211 124 28 0 67
-8 90 -18z m-2270 -5 c33 -14 35 -18 35 -60 l0 -45 -46 21 c-83 36 -165 15
-218 -56 -19 -25 -21 -44 -24 -207 l-4 -179 -44 0 -44 0 0 265 0 265 40 0 c39
0 40 -1 40 -34 0 -46 12 -51 37 -17 12 15 36 35 55 44 41 21 127 22 173 3z
m435 -195 c0 -184 1 -200 20 -224 18 -23 29 -26 93 -29 l72 -3 3 -37 3 -38
-84 0 c-71 0 -89 4 -117 23 -71 48 -75 59 -78 258 l-4 179 -59 0 -59 0 0 35 0
35 105 0 105 0 0 -199z"/>
<path d="M3006 7370 c-109 -35 -146 -93 -146 -229 l0 -91 46 18 c109 43 155
111 162 240 2 45 3 82 1 81 -2 0 -30 -8 -63 -19z"/>
<path d="M2283 7043 c-52 -77 -66 -121 -67 -198 0 -77 21 -137 68 -193 l28
-32 35 45 c54 71 73 121 73 196 0 71 -25 135 -77 197 l-28 33 -32 -48z"/>
<path d="M1892 6423 c3 -115 6 -133 30 -178 31 -60 77 -105 137 -135 l44 -22
-5 114 c-6 124 -23 178 -79 250 -28 35 -108 98 -124 98 -4 0 -5 -57 -3 -127z"/>
<path d="M1794 5803 c17 -92 99 -211 181 -258 49 -29 134 -60 142 -52 9 10
-47 164 -78 210 -44 67 -122 115 -213 131 l-38 7 6 -38z"/>
<path d="M1993 5239 c-81 -15 -82 -20 -23 -83 86 -91 207 -133 334 -116 80 12
86 21 46 66 -71 81 -135 118 -231 134 -71 11 -68 11 -126 -1z"/>
<path d="M2563 4746 c-46 -15 -143 -73 -143 -86 0 -4 12 -12 28 -18 74 -28
110 -34 186 -30 71 4 91 9 146 39 35 19 65 40 67 46 2 5 -20 21 -49 33 -65 28
-175 36 -235 16z"/>
<path d="M3610 7323 c0 -36 5 -84 12 -106 17 -58 83 -124 146 -147 l52 -20 0
87 c0 138 -43 203 -157 236 l-53 16 0 -66z"/>
<path d="M4324 7042 c-55 -82 -67 -113 -67 -177 -1 -73 12 -109 67 -189 l40
-58 28 33 c98 117 94 286 -9 406 l-28 33 -31 -48z"/>
<path d="M4729 6517 c-105 -79 -149 -177 -149 -328 l0 -99 40 20 c62 32 107
77 137 138 25 51 28 70 32 180 2 79 -1 122 -7 122 -6 0 -30 -15 -53 -33z"/>
<path d="M4813 5825 c-114 -31 -181 -101 -229 -239 -15 -45 -29 -87 -32 -93
-3 -9 14 -6 54 7 132 46 224 137 267 264 28 83 28 84 -60 61z"/>
<path d="M4552 5239 c-77 -13 -150 -54 -210 -117 -60 -64 -58 -68 36 -82 121
-17 252 30 338 122 l48 52 -29 12 c-45 18 -123 23 -183 13z"/>
<path d="M3945 4753 c-31 -6 -115 -46 -115 -53 0 -13 75 -58 124 -74 58 -20
166 -20 230 -1 80 24 84 33 29 72 -74 52 -181 75 -268 56z"/>
<path d="M3278 6460 c-39 -30 -52 -71 -38 -114 33 -100 172 -102 198 -3 26 99
-83 178 -160 117z"/>
<path d="M2540 6402 l0 -28 278 -17 c152 -10 284 -17 292 -17 11 0 15 12 16
45 l1 45 -293 0 -294 0 0 -28z"/>
<path d="M3550 6384 l0 -47 88 6 c48 3 180 12 295 18 l207 13 0 28 0 28 -295
0 -295 0 0 -46z"/>
<path d="M3290 5733 l0 -433 50 0 50 0 0 433 0 432 -50 0 -50 0 0 -432z"/>
<path d="M2705 6013 c-21 -76 -40 -146 -42 -155 -5 -16 4 -18 84 -18 l90 0
-40 148 c-21 81 -42 151 -46 155 -4 4 -25 -54 -46 -130z"/>
<path d="M3883 5998 c-23 -84 -41 -154 -39 -156 2 -1 42 -2 88 0 l85 3 -41
152 c-23 84 -43 153 -46 153 -3 0 -24 -68 -47 -152z"/>
<path d="M2594 5698 c9 -47 36 -80 87 -106 51 -27 102 -24 155 9 30 18 74 88
74 117 0 9 -44 12 -161 12 l-161 0 6 -32z"/>
<path d="M3775 5703 c19 -79 77 -127 155 -127 59 0 114 33 140 85 36 70 39 69
-141 69 l-161 0 7 -27z"/>
<path d="M3086 5174 c-9 -8 -16 -31 -16 -50 l0 -34 270 0 270 0 0 28 c0 15 -7
38 -16 50 -15 22 -19 22 -254 22 -204 0 -241 -2 -254 -16z"/>
<path d="M9292 6064 c-44 -31 -57 -71 -57 -184 0 -148 32 -200 121 -200 84 0
124 64 124 200 0 92 -16 145 -53 176 -34 28 -100 33 -135 8z"/>
<path d="M6366 6055 c-25 -91 -46 -170 -46 -175 0 -6 39 -10 95 -10 57 0 95 4
95 10 0 12 -90 333 -94 338 -2 1 -24 -72 -50 -163z"/>
<path d="M7480 6135 l0 -107 96 4 c91 3 97 5 120 31 33 39 33 105 0 143 -22
26 -29 28 -120 32 l-96 4 0 -107z"/>
<path d="M7480 5820 l0 -130 83 1 c107 0 147 14 170 59 22 43 18 111 -10 149
-27 35 -73 50 -165 50 l-78 1 0 -130z"/>
<path d="M9903 6068 c-87 -42 -91 -308 -6 -364 34 -22 95 -22 129 0 41 28 58
79 58 181 0 73 -4 98 -22 132 -12 23 -31 47 -41 53 -25 13 -89 12 -118 -2z"/>
<path d="M10489 6065 c-32 -17 -54 -49 -67 -98 l-10 -37 144 0 c79 0 144 3
144 6 0 3 -5 25 -11 50 -16 64 -56 94 -122 94 -29 -1 -64 -7 -78 -15z"/>
</g>
</svg>
